# xmcd
#
# Track frame offsets:
#	150
#	13015
#	22919
#	40023
#	51540
#	64105
#	75171
#	93186
#	104389
#	117696
#
# Disc length: 1819 seconds
#
# Revision: 0
# Processed by: cddbd v1.5.1PL2 Copyright (c) Steve Scherf et al.
# Submitted via: audiograbber 1.83.01
#
DISCID=7507190a
DTITLE=Aretha Franklin - Lady soul
DYEAR=1968
DGENRE=Soul
TTITLE0=Chain of fools
TTITLE1=Money won't change you
TTITLE2=People get ready
TTITLE3=Niki hoeky
TTITLE4=(You make me feel like) A natural woman
TTITLE5=Since you've been gone (Sweet sweet baby)
TTITLE6=Good to me as I am to you
TTITLE7=Come back baby
TTITLE8=Groovin'
TTITLE9=Ain't no way
EXTD=
EXTT0=
EXTT1=
EXTT2=
EXTT3=
EXTT4=
EXTT5=
EXTT6=
EXTT7=
EXTT8=
EXTT9=
PLAYORDER=
